<?xml version="1.0" standalone="no"?>
<!DOCTYPE svg PUBLIC "-//W3C//DTD SVG 20010904//EN"
 "http://www.w3.org/TR/2001/REC-SVG-20010904/DTD/svg10.dtd">
<svg version="1.0" xmlns="http://www.w3.org/2000/svg"
 width="468.000000pt" height="482.000000pt" viewBox="0 0 468.000000 482.000000"
 preserveAspectRatio="xMidYMid meet">

<g transform="translate(0.000000,482.000000) scale(0.100000,-0.100000)"
fill="#000000" stroke="none">
<path d="M0 4810 c0 -7 787 -10 2340 -10 1553 0 2340 3 2340 10 0 7 -787 10
-2340 10 -1553 0 -2340 -3 -2340 -10z"/>
<path d="M964 4016 c-28 -13 -63 -39 -77 -58 -61 -79 -57 9 -57 -1369 0 -1382
-4 -1283 59 -1359 41 -50 111 -82 192 -88 l69 -5 0 -78 c0 -123 51 -214 145
-258 45 -21 46 -21 1210 -21 l1165 0 45 21 c55 26 121 98 136 148 7 24 9 441
7 1296 l-3 1260 -27 46 c-48 82 -111 118 -223 128 l-70 6 -5 100 c-5 110 -22
149 -82 200 -69 58 1 55 -1267 55 l-1166 0 -51 -24z m2387 -162 c21 -22 24
-35 24 -97 l0 -72 -1015 -5 -1015 -5 -58 -29 c-46 -22 -66 -40 -95 -84 l-37
-55 -5 -1101 -5 -1101 -46 -3 c-38 -2 -52 2 -78 23 l-31 27 0 1243 0 1244 26
20 c27 21 29 21 1169 21 l1142 0 24 -26z m307 -350 c12 -8 26 -24 32 -34 8
-15 14 -1375 10 -2433 0 -37 -5 -53 -25 -72 l-24 -25 -1143 0 c-883 1 -1147 3
-1159 13 -28 22 -39 55 -39 121 l0 66 998 0 c1113 0 1065 -3 1144 68 83 75 77
-17 78 1191 1 617 5 1083 10 1097 8 20 16 24 53 24 23 0 53 -7 65 -16z m-1368
-544 l0 -60 -130 0 -130 0 0 -90 0 -90 130 0 130 0 0 -60 0 -60 -130 0 -130 0
0 -230 0 -229 113 -3 112 -3 0 -55 0 -55 -302 -3 -303 -2 0 60 0 59 108 3 107
3 0 225 0 225 -112 3 -113 3 0 59 0 59 113 3 112 3 6 90 c7 101 16 131 50 161
45 40 61 43 217 44 l152 0 0 -60z m601 -254 c57 -17 94 -37 134 -70 l30 -25
-40 -40 c-21 -23 -44 -41 -50 -41 -6 0 -26 10 -45 23 -54 36 -111 50 -179 45
-82 -6 -116 -31 -116 -84 0 -35 4 -41 35 -56 19 -9 73 -22 120 -28 147 -20
206 -43 247 -97 25 -33 28 -45 28 -113 0 -72 -3 -79 -35 -120 -49 -62 -119
-91 -231 -98 -146 -8 -241 19 -324 91 l-40 35 30 32 c49 52 62 55 105 25 88
-61 202 -81 277 -50 52 22 73 44 73 76 0 44 -37 65 -138 78 -101 14 -208 45
-237 69 -51 43 -65 73 -65 139 0 108 33 156 136 198 47 20 77 25 149 25 50 0
111 -7 136 -14z"/>
<path d="M0 10 c0 -7 787 -10 2340 -10 1553 0 2340 3 2340 10 0 7 -787 10
-2340 10 -1553 0 -2340 -3 -2340 -10z"/>
</g>
</svg>
